<svg id="1" data-name="IEK-logo" width="200px" height="32px" viewBox="0 0 700 100" xmlns="http://www.w3.org/2000/svg">
    <title>IEK_logo_轉成圖形2</title>
    <path class="cls-1" d="M17.87,1H39.63L23,84H1.67Z" transform="translate(0 0)"></path>
    <path class="cls-1" d="M47.05,1h63.73l-2.73,14.72H66.69L63.29,32.9h41.58l-2.71,14.61H60.4L56,69.51h42L95.39,84H30.85Z" transform="translate(0 0)"></path>
    <path class="cls-1" d="M119.05.83h21.21L135,28.74,170.92.83h26.24L148.08,38.74l38.77,45.05H163.21L131.57,47l-6.92,36.77h-21Z" transform="translate(0 0)"></path>
    <path class="cls-2" d="M231.5,68.41H214.44a3.59,3.59,0,0,1-2.58-.92,3.24,3.24,0,0,1-1-2.46,3.16,3.16,0,0,1,1-2.39,3.58,3.58,0,0,1,2.58-.91H231.5V56.59H216.36A24.86,24.86,0,0,1,211.42,62a3.53,3.53,0,0,1-2.88.84A4.87,4.87,0,0,1,206,61.3a60.93,60.93,0,0,1-2.29,13A43.41,43.41,0,0,1,201,80.57a4.47,4.47,0,0,1-2.73,1.83,5.52,5.52,0,0,1-2.81-.63q-2.5-2.19-.74-5.35Q199,67.29,199,53.92V44.43a5.68,5.68,0,0,1,1.48-4.36c1-1.17,2.66-1.73,4.87-1.69h3.84a4.05,4.05,0,0,1-.37-1.12A3,3,0,0,1,209.5,35a3.88,3.88,0,0,1,2.51-1.2q4.73-.63,8.93-1.54a55.39,55.39,0,0,0-6.2-1.55,3.14,3.14,0,0,1-2.29-1.27,3.4,3.4,0,0,1-.59-2.25,2.85,2.85,0,0,1,.74-1.54H199.68a3.6,3.6,0,0,1-2.59-.92,3.24,3.24,0,0,1-1-2.46,3.16,3.16,0,0,1,1-2.39,3.59,3.59,0,0,1,2.59-.91H226V17.5a3.52,3.52,0,0,1,1-2.67,3.9,3.9,0,0,1,2.81-1,4.41,4.41,0,0,1,2.66,1,3.32,3.32,0,0,1,1.18,2.67V19h26.28a3.66,3.66,0,0,1,2.51.84,3.24,3.24,0,0,1,1,2.46,3.14,3.14,0,0,1-1,2.39,3.33,3.33,0,0,1-2.51,1h-8.86q-5.84,3.3-10.7,5.83,4.57,1.34,8.64,2.81a3.69,3.69,0,0,1,2,1.76,2.89,2.89,0,0,1,.07,2.32h9.16a4.57,4.57,0,0,1,2.88.92,3.24,3.24,0,0,1,1.1,2.39,2.77,2.77,0,0,1-1.1,2.53,5.07,5.07,0,0,1-2.88.84H238.81v4.85h19.93a3.68,3.68,0,0,1,2.51.85,3.24,3.24,0,0,1,1,2.46,3.16,3.16,0,0,1-1,2.39,3.34,3.34,0,0,1-2.51,1H238.81v5.14h18.75a3.68,3.68,0,0,1,2.51.84A3.24,3.24,0,0,1,261,65a3.14,3.14,0,0,1-1,2.39,3.34,3.34,0,0,1-2.51,1H238.81V74h22.88a3.69,3.69,0,0,1,2.66.92,3.46,3.46,0,0,1,1,2.53,3.44,3.44,0,0,1-3.62,3.51H208.54a4,4,0,0,1-2.73-1,3.48,3.48,0,0,1-1-2.53,3.53,3.53,0,0,1,1-2.46,3.92,3.92,0,0,1,2.73-1h23ZM213.78,45.06h-5.69a2,2,0,0,0-1.32.42,1.77,1.77,0,0,0-.45,1.34V56a9.74,9.74,0,0,1-.07,1.13,6.92,6.92,0,0,1,1.11-1,18.76,18.76,0,0,0,5.9-9.77A5.27,5.27,0,0,1,213.78,45.06ZM231.57,29q3.54-1.55,7.31-3.3H219.24q4.37,1.05,11.52,3A3.4,3.4,0,0,1,231.57,29Zm-.07,16.1H220l.07.07c.45.89.3,2.49-.44,4.78H231.5Zm10.7-6.68q-4.72-1.68-10.26-3.23-8.72,2.74-10.34,3.23Z" transform="translate(0 0)"></path>
    <path class="cls-2" d="M309.24,79.66a3.83,3.83,0,0,1-1.18,2.88,3.92,3.92,0,0,1-2.66,1,4.42,4.42,0,0,1-2.73-1,4.36,4.36,0,0,1-1-3V66.93a83.76,83.76,0,0,1-12.55,6.89q-14.83,6.47-18.16,4.36a3.53,3.53,0,0,1-1.55-2.32,3.63,3.63,0,0,1,3.4-4.29,75,75,0,0,0,23-8.79H274.1a3.32,3.32,0,0,1-2.37-.84,3.11,3.11,0,0,1-.88-2.25,3,3,0,0,1,.88-2.18,3.48,3.48,0,0,1,2.37-.85h27.53V53.22h-23.1a3.3,3.3,0,0,1-2.37-.84,3.11,3.11,0,0,1-.88-2.25,3,3,0,0,1,.88-2.18,3.43,3.43,0,0,1,2.37-.85h23.1V43.66H276.75a3.26,3.26,0,0,1-2.36-.85,3.11,3.11,0,0,1-.88-2.25,3,3,0,0,1,.88-2.18,3.46,3.46,0,0,1,2.36-.84h14.11a28.93,28.93,0,0,0-3.18-5.41H274.1a3.32,3.32,0,0,1-2.37-.85,3.11,3.11,0,0,1-.88-2.25,3,3,0,0,1,.88-2.18A3.47,3.47,0,0,1,274.1,26h10.19a1.18,1.18,0,0,1-.37-.56,34.26,34.26,0,0,0-2.88-4,3.72,3.72,0,0,1-1.11-2.67,3,3,0,0,1,1.25-2.25,3.68,3.68,0,0,1,2.59-.92A4.1,4.1,0,0,1,286.35,17q4.95,5.34,4.28,8.08a5.44,5.44,0,0,1-.51.92h5.61V17.22a3.39,3.39,0,0,1,.88-2.46,3.61,3.61,0,0,1,2.59-.92,3.38,3.38,0,0,1,2.43.92,3,3,0,0,1,1.11,2.46V26h5.69V17.22a3.39,3.39,0,0,1,.88-2.46,3.6,3.6,0,0,1,2.59-.92,3.38,3.38,0,0,1,2.43.92,3,3,0,0,1,1.11,2.46V26h4.28a3.57,3.57,0,0,1,1-3.52,34,34,0,0,0,4.13-5.55,4,4,0,0,1,2.22-2,3.57,3.57,0,0,1,2.65.35,2.77,2.77,0,0,1,1.78,2q.51,2.54-4.66,8.72h9.53a3.86,3.86,0,0,1,2.29.77,3.11,3.11,0,0,1,.88,2.25,3,3,0,0,1-.88,2.18,3.06,3.06,0,0,1-2.29.92H322.16c-.59,1.64-1.36,3.44-2.29,5.41h14.18a3.89,3.89,0,0,1,2.28.77,3.12,3.12,0,0,1,.89,2.25,3.09,3.09,0,0,1-3.17,3.1H309.24V47.1h23a3.9,3.9,0,0,1,2.29.78,3.1,3.1,0,0,1,.89,2.25,3,3,0,0,1-.89,2.17,3,3,0,0,1-2.29.92h-23v3.44h27.17a3.93,3.93,0,0,1,2.29.78,3.11,3.11,0,0,1,.88,2.25,3.06,3.06,0,0,1-3.17,3.09H315.07q8.71,5.7,22.89,8.86a4.07,4.07,0,0,1,2.73,1.76,4.39,4.39,0,0,1,.3,2.74,3.39,3.39,0,0,1-1.78,2.18,4.22,4.22,0,0,1-3.25.28A88.67,88.67,0,0,1,309.24,67ZM312,37.54a36.06,36.06,0,0,0,2.73-5.41H296c.89,1.59,1.77,3.39,2.66,5.41Z" transform="translate(0 0)"></path>
    <path class="cls-2" d="M347.26,28.05A3.16,3.16,0,0,1,349.55,27a4.29,4.29,0,0,1,2.36.78,3.84,3.84,0,0,1,1.11,2.6q-1,23.68-3.32,25.17a4.15,4.15,0,0,1-2.44.56,3.54,3.54,0,0,1-2.21-1.19,4,4,0,0,1-.52-2.75,118.78,118.78,0,0,0,1.85-21.58A3.11,3.11,0,0,1,347.26,28.05Zm14.4,51.33a3.62,3.62,0,0,1-1.11,2.74,3.67,3.67,0,0,1-2.58,1,3.46,3.46,0,0,1-3.62-3.79V17.5a3.43,3.43,0,0,1,1-2.6A3.86,3.86,0,0,1,358,14a3.94,3.94,0,0,1,2.58.92,3.44,3.44,0,0,1,1.11,2.6ZM388,33.81H373.32A3.29,3.29,0,0,1,371,33a3.12,3.12,0,0,1-.89-2.25,3,3,0,0,1,.89-2.18,3.46,3.46,0,0,1,2.36-.84H388V24.25H371.55a3.28,3.28,0,0,1-2.36-.84,3.12,3.12,0,0,1-.89-2.25,3,3,0,0,1,.89-2.18,3.41,3.41,0,0,1,2.36-.85H388v-.91a3.41,3.41,0,0,1,1-2.6,3.88,3.88,0,0,1,2.66-.92,4,4,0,0,1,2.59.92,3.47,3.47,0,0,1,1.1,2.6v.91H412a3.93,3.93,0,0,1,2.29.78,3.11,3.11,0,0,1,.88,2.25A3.06,3.06,0,0,1,412,24.25H395.32V27.7h15.21a3.83,3.83,0,0,1,2.29.77,3.12,3.12,0,0,1,.89,2.25,3.08,3.08,0,0,1-3.18,3.09H395.32V37h18.46a3.86,3.86,0,0,1,2.29.77A3.11,3.11,0,0,1,417,40a3.06,3.06,0,0,1-3.17,3.09H370.44v.21a3.43,3.43,0,0,1-.66,2.4,2.5,2.5,0,0,1-2.07,1,3.26,3.26,0,0,1-2.21-.49,3,3,0,0,1-1.19-2.32L362.84,31a3.09,3.09,0,0,1,.52-2.32,2.88,2.88,0,0,1,2.06-1.13,3.59,3.59,0,0,1,2.37.5A3.74,3.74,0,0,1,369,30.37L369.7,37H388Zm-9.52,45.57a3.52,3.52,0,0,1-1,2.67,3.82,3.82,0,0,1-2.73,1,3.61,3.61,0,0,1-2.59-.91,3.85,3.85,0,0,1-1-2.81V51.53A5.59,5.59,0,0,1,373,47.45a6,6,0,0,1,4.43-1.75h29.46a5.86,5.86,0,0,1,4.28,1.75A6,6,0,0,1,413,51.6V75.65a6.29,6.29,0,0,1-3.54,5.83,11.49,11.49,0,0,1-4.21,1.06q-9.45.42-11.44-2.18a4.36,4.36,0,0,1-.45-2.74q1.19-3.32,5-2.67,4.88,1,6.2.35c.79-.57,1.18-1.62,1.18-3.17V70.66H378.49ZM405.73,55V53.92a2.39,2.39,0,0,0-2.21-2.11H381.15a2.49,2.49,0,0,0-2.66,2.46V55Zm0,9.56V61.09H378.49v3.45Z" transform="translate(0 0)"></path>
    <path class="cls-2" d="M425,70.94a3.59,3.59,0,0,1-2.58-.92,3.22,3.22,0,0,1-1-2.46,3.16,3.16,0,0,1,1-2.39,3.58,3.58,0,0,1,2.58-.91h10.56v-6h-10a3.58,3.58,0,0,1-2.58-.91,3.24,3.24,0,0,1-1-2.46,3.14,3.14,0,0,1,1-2.39,3.59,3.59,0,0,1,2.58-.92h3.32c-.09-.14-.81-1.62-2.14-4.43s-2-4.45-1.84-5.06a3.29,3.29,0,0,1,1.55-2,1.29,1.29,0,0,1,.88-.42h-2.95a3.59,3.59,0,0,1-2.58-.92,3.21,3.21,0,0,1-1-2.46,3.16,3.16,0,0,1,1-2.39,3.58,3.58,0,0,1,2.58-.91H435V27.63h-9.38a3.59,3.59,0,0,1-2.58-.92,3.24,3.24,0,0,1-1-2.46,3.16,3.16,0,0,1,1-2.39,3.58,3.58,0,0,1,2.58-.91H435V17.22a3.41,3.41,0,0,1,1-2.6,3.86,3.86,0,0,1,2.66-.92,3.94,3.94,0,0,1,2.58.92,3.44,3.44,0,0,1,1.11,2.6V21h9.3a3.68,3.68,0,0,1,2.51.84,3.24,3.24,0,0,1,1,2.46,3.16,3.16,0,0,1-1,2.39,3.34,3.34,0,0,1-2.51,1h-9.3V33h9.89a3.68,3.68,0,0,1,2.51.84,3.24,3.24,0,0,1,1,2.46,3.13,3.13,0,0,1-1,2.39,3.34,3.34,0,0,1-2.51,1h-1.33a2.69,2.69,0,0,1,.81.84,2.87,2.87,0,0,1,.37,1.2q0,1-3.32,9.84h3.18a3.59,3.59,0,0,1,2.5.85,3.22,3.22,0,0,1,1,2.46,3.16,3.16,0,0,1-1,2.39,3.34,3.34,0,0,1-2.5,1h-9v6h9.3a3.68,3.68,0,0,1,2.51.84,3.24,3.24,0,0,1,1,2.46,3.14,3.14,0,0,1-1,2.39,3.34,3.34,0,0,1-2.51,1h-9.3v8.72a3.61,3.61,0,0,1-1.11,2.74,3.67,3.67,0,0,1-2.58,1,3.46,3.46,0,0,1-3.62-3.79V70.94ZM441.46,51.6c.79-1.59,1.58-3.4,2.37-5.41q2.35-6,3-6.47H429.06a4.15,4.15,0,0,1,2.22,1.76q4.13,6.54,3,9.14a3.15,3.15,0,0,1-.81,1ZM477.2,74.88q-8.42,7.8-10.63,7.59a3.92,3.92,0,0,1-2.44-1.62,3.14,3.14,0,0,1-.89-1.76v.57a3.68,3.68,0,0,1-1.1,2.81,4,4,0,0,1-2.59,1,4.1,4.1,0,0,1-2.58-1,3.74,3.74,0,0,1-1-2.74V22.91A5.94,5.94,0,0,1,458,18.13a6.41,6.41,0,0,1,4.58-1.54h21.34a6.8,6.8,0,0,1,5.09,2c1.38,1.59,1.75,4.57,1.11,8.92q-1.33,7.25-3.32,8.3Q482.66,39,471.37,36a3.32,3.32,0,0,1-2.59-1.83,3.5,3.5,0,0,1-.07-2.74q1.17-3,4.94-2.11c4.48.75,7.17.75,8.05,0a1.38,1.38,0,0,0,.52-.42c.1-.19.22-.44.37-.77a3.82,3.82,0,0,0,.29-1.13,3.77,3.77,0,0,0,.22-1,2,2,0,0,0-1-1.83,4.57,4.57,0,0,0-2.29-.63H466.57a3.09,3.09,0,0,0-3.33,3.23V38.52h20.23a5.81,5.81,0,0,1,4.65,1.55q1.78,1.91,1.48,6.4a47.29,47.29,0,0,1-2.36,11,50.53,50.53,0,0,1-4.65,10.26,6.48,6.48,0,0,0-.67,1.13,40.42,40.42,0,0,0,9,6.68A4,4,0,0,1,492.78,78a3.5,3.5,0,0,1-.6,2.74,3.84,3.84,0,0,1-2.36,1.55q-3.39.35-12.11-8Zm-13.07-29.4h-.89V78.25s0-.07.08-.07a3.4,3.4,0,0,1,1.7-2.32,77.66,77.66,0,0,0,8-6.68,39.75,39.75,0,0,1-8.2-18.42A49.29,49.29,0,0,1,464.13,45.48Zm13,18.22c.25-.47.52-.94.82-1.41a50.6,50.6,0,0,0,3.32-7.52Q483.48,47,482.59,46a3.57,3.57,0,0,0-2.29-.5h-9.16q.67,10.13,4.95,16.46C476.43,62.5,476.78,63.09,477.12,63.7Z" transform="translate(0 0)"></path>
    <path class="cls-2" d="M499.86,52.59a4,4,0,0,1-2.95-.64,3.43,3.43,0,0,1-.74-4.71,5.93,5.93,0,0,1,2.73-1.47h1.33q2.52-3,5.39-6.82a62.91,62.91,0,0,0-7.6-7.18,3.76,3.76,0,0,1-1.77-2.32A3.31,3.31,0,0,1,499,25.52a3.19,3.19,0,0,1,2.58.56A93.41,93.41,0,0,0,506,16.23a4,4,0,0,1,2.14-2,3.63,3.63,0,0,1,2.73.21,4.1,4.1,0,0,1,1.78,1.82q.66,2.32-6.06,14c.79.84,1.7,1.78,2.73,2.81a85.46,85.46,0,0,0,4.8-10A4.25,4.25,0,0,1,516,20.88a3.82,3.82,0,0,1,2.73-.15,4.07,4.07,0,0,1,2,1.69,4.83,4.83,0,0,1,.3,1.27q-1.18,7-11.67,21.09l5.84-.63q-1.33-4.71-.89-5.63a2.82,2.82,0,0,1,1.85-1.68,4.12,4.12,0,0,1,2.51.07A3.26,3.26,0,0,1,520.46,39Q524.3,51.19,523,53.15a3.65,3.65,0,0,1-2.21,1.26,3.93,3.93,0,0,1-2.44-.49c-.44-.33-1-1.4-1.55-3.23l-3,.35V79.66a3.64,3.64,0,0,1-1.1,2.74,3.69,3.69,0,0,1-2.59,1,3.48,3.48,0,0,1-3.62-3.79V51.88Zm-.59,2.74a3.19,3.19,0,0,1,2.22-.92,4.23,4.23,0,0,1,2.21.85,3.24,3.24,0,0,1,1,2.46q-.36,6.26-1.25,13.71-1,5.7-2.07,6.54a4.19,4.19,0,0,1-2.36.49,3.83,3.83,0,0,1-2.07-1.26,3.52,3.52,0,0,1-.37-2.61,92.06,92.06,0,0,0,1.77-16.8A3.24,3.24,0,0,1,499.27,55.33Zm23.85,13.43a3.28,3.28,0,0,1-.59,2.46,2.71,2.71,0,0,1-2,1.12,4.38,4.38,0,0,1-2.29-.42A3.27,3.27,0,0,1,517,69.67l-1.77-11.53a3.15,3.15,0,0,1,.44-2.39,3.31,3.31,0,0,1,2-1.2,3.37,3.37,0,0,1,2.43.43,3.69,3.69,0,0,1,1.26,2.25Zm8-16.38V79.09a3.63,3.63,0,0,1-1.11,2.75,3.71,3.71,0,0,1-2.58,1,3.47,3.47,0,0,1-3.62-3.8V22.84a6,6,0,0,1,1.84-4.29,6.28,6.28,0,0,1,4.58-1.82h28.94a6.44,6.44,0,0,1,4.43,1.82,5.94,5.94,0,0,1,2.07,4.36V74.24a8.12,8.12,0,0,1-3.55,7.24,9.26,9.26,0,0,1-4.06,1.2c-6.49.33-10.41-.42-11.73-2.25A3.83,3.83,0,0,1,551,74.88q4.58,1.19,5.68.56c1.13-.71,1.7-2,1.7-3.87V52.38H542v8.15a2.37,2.37,0,0,0,.66,2,3.57,3.57,0,0,0,2.29.84h8.86a4.23,4.23,0,0,1,2.8.92,3.4,3.4,0,0,1,1,2.39,3.57,3.57,0,0,1-1,2.39,4.16,4.16,0,0,1-2.88,1H541.5a6.88,6.88,0,0,1-4.65-1.75,6.37,6.37,0,0,1-1.92-4.57V52.38Zm27.24-16.81V25.66a2.34,2.34,0,0,0-2.36-2.25H533.9a3,3,0,0,0-2,.77,2.53,2.53,0,0,0-.74,1.83v9.56h6.42A3.44,3.44,0,0,1,536,33.18a19.27,19.27,0,0,0-1.33-4,3.28,3.28,0,0,1-.22-2.6,2.56,2.56,0,0,1,1.7-1.69,3.39,3.39,0,0,1,2.51-.14,4.44,4.44,0,0,1,1.92,1.9q2.8,6,1.47,7.88a4.71,4.71,0,0,1-1.18,1H546s0-.07.07-.07a35.52,35.52,0,0,0,2.07-4.64q1.85-5.13,3-5.77a3.84,3.84,0,0,1,2.51-.28,4.65,4.65,0,0,1,2.07,1.41q.89,2-2.44,9.35ZM541.13,46.26V41.69h-10v4.57Zm17.28,0V41.69H548.15v4.57Z" transform="translate(0 0)"></path>
</svg>